<?xml version="1.0" encoding="UTF-8" standalone="no"?>
<!DOCTYPE svg PUBLIC "-//W3C//DTD SVG 1.1//EN" "http://www.w3.org/Graphics/SVG/1.1/DTD/svg11.dtd">
<svg width="100%" height="100%" viewBox="0 0 1043 1043" version="1.1" xmlns="http://www.w3.org/2000/svg" xmlns:xlink="http://www.w3.org/1999/xlink" xml:space="preserve" xmlns:serif="http://www.serif.com/" style="fill-rule:evenodd;clip-rule:evenodd;stroke-linecap:round;stroke-linejoin:round;stroke-miterlimit:1.5;">
    <g transform="matrix(1,0,0,1,-804.895,-1002.04)">
        <g transform="matrix(0.238779,-1.14268,0.848516,0.177309,-315.016,2672.01)">
            <path d="M1254.06,1189.18C1103.71,1189.18 981.826,1356.88 981.826,1563.75C981.826,1770.48 1103.81,1938.33 1254.06,1938.33C1404.4,1938.33 1526.28,1770.62 1526.28,1563.75L1254.06,1563.75L1254.06,1189.18Z" style="fill:rgb(246,246,246);stroke:rgb(255,8,141);stroke-width:18.24px;"/>
        </g>
        <g transform="matrix(0.929838,0,0,0.883707,54.2406,58.5649)">
            <path d="M1367.95,1114.38L1884.17,1657.55L1367.95,2200.72L851.728,1657.55L1367.95,1114.38Z" style="fill:none;stroke:black;stroke-width:50.53px;stroke-linecap:square;stroke-linejoin:miter;"/>
        </g>
        <g transform="matrix(0.207492,0,0,1,943.821,-125.123)">
            <path d="M1685.32,1442.17C1685.32,1415.53 1581.06,1393.9 1452.64,1393.9L987.29,1393.9C858.873,1393.9 754.614,1415.53 754.614,1442.17L754.614,2021.65C754.614,2048.3 858.873,2069.93 987.29,2069.93L1452.64,2069.93C1581.06,2069.93 1685.32,2048.3 1685.32,2021.65L1685.32,1442.17Z" style="fill:rgb(35,214,150);stroke:rgb(0,148,255);stroke-width:1.38px;"/>
        </g>
        <g transform="matrix(0.838119,0,0,0.796251,337.108,217.582)">
            <ellipse cx="1227.43" cy="1392.84" rx="333.756" ry="325.192" style="fill:rgb(35,130,214);"/>
        </g>
        <g transform="matrix(1.0668e-16,1.71429,-1.40454,8.80909e-17,3274.19,-1159.21)">
            <path d="M1545.76,1415.49C1555.43,1394.15 1560.52,1369.94 1560.52,1345.3C1560.52,1267.82 1511.16,1204.91 1450.35,1204.91C1389.55,1204.91 1340.18,1267.82 1340.18,1345.3C1340.18,1369.94 1345.28,1394.15 1354.94,1415.49L1545.76,1415.49Z" style="fill:rgb(35,214,150);stroke:rgb(0,148,255);stroke-width:29.25px;stroke-linecap:square;stroke-linejoin:miter;"/>
        </g>
    </g>
</svg>
